<?xml version="1.0" encoding="UTF-8"?>
<svg width="154px" height="93px" viewBox="0 0 154 93" version="1.1" xmlns="http://www.w3.org/2000/svg" xmlns:xlink="http://www.w3.org/1999/xlink">
    <title>1.缺省/引导/资料检索</title>
    <defs>
        <rect id="path-1" x="0" y="0" width="154" height="93" rx="2"></rect>
        <linearGradient x1="50%" y1="0%" x2="50%" y2="100%" id="linearGradient-3">
            <stop stop-color="#C8C8C8" stop-opacity="0.279583698" offset="0%"></stop>
            <stop stop-color="#FFFFFF" stop-opacity="0.0558074738" offset="100%"></stop>
        </linearGradient>
        <linearGradient x1="50%" y1="0%" x2="50%" y2="100%" id="linearGradient-4">
            <stop stop-color="#C8C8C8" stop-opacity="0.279583698" offset="0%"></stop>
            <stop stop-color="#FFFFFF" stop-opacity="0.0558074738" offset="100%"></stop>
        </linearGradient>
        <linearGradient x1="50%" y1="0%" x2="50%" y2="100%" id="linearGradient-5">
            <stop stop-color="#C8C8C8" stop-opacity="0.279583698" offset="0%"></stop>
            <stop stop-color="#FFFFFF" stop-opacity="0.0558074738" offset="100%"></stop>
        </linearGradient>
        <linearGradient x1="50%" y1="0%" x2="50%" y2="100%" id="linearGradient-6">
            <stop stop-color="#C8C8C8" stop-opacity="0.279583698" offset="0%"></stop>
            <stop stop-color="#FFFFFF" stop-opacity="0.0558074738" offset="100%"></stop>
        </linearGradient>
    </defs>
    <g id="合同系统" stroke="none" stroke-width="1" fill="none" fill-rule="evenodd" opacity="0.5">
        <g id="模版管理" transform="translate(-370, -261)">
            <g id="编组" transform="translate(224, 84)">
                <g id="编组-3备份-5" transform="translate(12, 126)">
                    <g id="1.缺省/引导/资料检索" transform="translate(134, 51)">
                        <mask id="mask-2" fill="white">
                            <use xlink:href="#path-1"></use>
                        </mask>
                        <g id="矩形"></g>
                        <g id="编组-7" mask="url(#mask-2)">
                            <g transform="translate(0.4474, 3)" id="编组-3">
                                <g id="bg" opacity="0.5">
                                    <path d="M26.875,10.625 L26.875,96.875 L0,96.875 L0,15.7204733 L26.875,10.625 Z M21.875,43.75 L16.875,43.75 C16.529822,43.75 16.25,44.029822 16.25,44.375 L16.25,58.125 C16.25,58.470178 16.529822,58.75 16.875,58.75 L21.875,58.75 C22.220178,58.75 22.5,58.470178 22.5,58.125 L22.5,44.375 C22.5,44.029822 22.220178,43.75 21.875,43.75 Z M11.25,43.75 L6.25,43.75 C5.90482203,43.75 5.625,44.029822 5.625,44.375 L5.625,58.125 C5.625,58.470178 5.90482203,58.75 6.25,58.75 L11.25,58.75 C11.595178,58.75 11.875,58.470178 11.875,58.125 L11.875,44.375 C11.875,44.029822 11.595178,43.75 11.25,43.75 Z M21.875,23.75 L16.875,23.75 C16.529822,23.75 16.25,24.029822 16.25,24.375 L16.25,38.125 C16.25,38.470178 16.529822,38.75 16.875,38.75 L21.875,38.75 C22.220178,38.75 22.5,38.470178 22.5,38.125 L22.5,24.375 C22.5,24.029822 22.220178,23.75 21.875,23.75 Z M11.25,23.75 L6.25,23.75 C5.90482203,23.75 5.625,24.029822 5.625,24.375 L5.625,38.125 C5.625,38.470178 5.90482203,38.75 6.25,38.75 L11.25,38.75 C11.595178,38.75 11.875,38.470178 11.875,38.125 L11.875,24.375 C11.875,24.029822 11.595178,23.75 11.25,23.75 Z" id="形状结合" fill="url(#linearGradient-3)"></path>
                                    <path d="M109.111328,14.6875 L109.111328,88.125 L85.3613281,88.125 L85.3613281,14.6875 L109.111328,14.6875 Z M105,19.375 L100,19.375 C99.654822,19.375 99.375,19.654822 99.375,20 L99.375,33.75 C99.375,34.095178 99.654822,34.375 100,34.375 L105,34.375 C105.345178,34.375 105.625,34.095178 105.625,33.75 L105.625,20 C105.625,19.654822 105.345178,19.375 105,19.375 Z" id="形状结合" fill="url(#linearGradient-4)"></path>
                                    <path d="M57.5,19.375 L57.5,96.875 L30.625,96.875 L30.625,19.375 L57.5,19.375 Z M42.5,34.375 L33.75,34.375 C33.404822,34.375 33.125,34.654822 33.125,35 L33.125,36.875 C33.125,37.220178 33.404822,37.5 33.75,37.5 L42.5,37.5 C42.845178,37.5 43.125,37.220178 43.125,36.875 L43.125,35 C43.125,34.654822 42.845178,34.375 42.5,34.375 Z M53.75,34.375 L45.625,34.375 C45.279822,34.375 45,34.654822 45,35 L45,36.875 C45,37.220178 45.279822,37.5 45.625,37.5 L53.75,37.5 C54.095178,37.5 54.375,37.220178 54.375,36.875 L54.375,35 C54.375,34.654822 54.095178,34.375 53.75,34.375 Z M42.5,28.75 L33.75,28.75 C33.404822,28.75 33.125,29.029822 33.125,29.375 L33.125,31.25 C33.125,31.595178 33.404822,31.875 33.75,31.875 L42.5,31.875 C42.845178,31.875 43.125,31.595178 43.125,31.25 L43.125,29.375 C43.125,29.029822 42.845178,28.75 42.5,28.75 Z M53.75,28.75 L45.625,28.75 C45.279822,28.75 45,29.029822 45,29.375 L45,31.25 C45,31.595178 45.279822,31.875 45.625,31.875 L53.75,31.875 C54.095178,31.875 54.375,31.595178 54.375,31.25 L54.375,29.375 C54.375,29.029822 54.095178,28.75 53.75,28.75 Z" id="形状结合" fill="url(#linearGradient-5)"></path>
                                    <path d="M143.75,0 L143.75,88.125 L113.125,88.125 L113.125,0 L143.75,0 Z M138.75,28.125 L118.125,28.125 C117.779822,28.125 117.5,28.404822 117.5,28.75 L117.5,31.25 C117.5,31.595178 117.779822,31.875 118.125,31.875 L138.75,31.875 C139.095178,31.875 139.375,31.595178 139.375,31.25 L139.375,28.75 C139.375,28.404822 139.095178,28.125 138.75,28.125 Z M138.75,10 L118.125,10 C117.779822,10 117.5,10.279822 117.5,10.625 L117.5,25 C117.5,25.345178 117.779822,25.625 118.125,25.625 L138.75,25.625 C139.095178,25.625 139.375,25.345178 139.375,25 L139.375,10.625 C139.375,10.279822 139.095178,10 138.75,10 Z" id="形状结合" fill="url(#linearGradient-6)"></path>
                                </g>
                                <g id="编组-10" transform="translate(41.0871, 3)" fill-rule="nonzero">
                                    <path d="M68.8281833,17.2500396 L68.7886348,74.5416625 C68.7886348,76.2434537 67.3708228,77.6259081 65.6188293,77.6259081 L3.17178912,77.6259081 C1.41979569,77.6259081 0,76.2434537 0,74.5376926 L0.0533904133,3.09416583 C0.0474581451,1.38840465 1.46527023,0.0039699784 3.21726367,0 L51.6324505,0.0158674551 L51.6344279,0.0158674551 C56.3684737,4.93290735 68.8281833,17.2461347 68.8281833,17.2500396 Z" id="路径" fill="#F7FBFF"></path>
                                    <path d="M51.6819819,14.0468779 C51.6819819,15.8081723 53.1077006,17.2402188 54.8656355,17.2402188 L68.7985869,17.267987 L51.5930627,0.00211394377 L51.6820468,14.0488644 L51.6819819,14.0468779 Z" id="路径" fill="#DCE9F9"></path>
                                    <path d="M49.566619,30 C50.5862913,30 51.4128986,30.9793768 51.4128986,32.1875 C51.4128986,33.3956232 50.5862913,34.375 49.5666189,34.375 L12.6341783,34.375 C11.6145059,34.375 10.7878986,33.3956232 10.7878986,32.1875 C10.7878986,30.9793768 11.6145059,30 12.6341782,30 L49.566619,30 Z" id="路径" fill="#DCE9F9"></path>
                                    <path d="M49.566619,19.375 C50.5862913,19.375 51.4128986,20.3543768 51.4128986,21.5625 C51.4128986,22.7706232 50.5862913,23.75 49.5666189,23.75 L12.6341783,23.75 C11.6145059,23.75 10.7878986,22.7706232 10.7878986,21.5625 C10.7878986,20.3543768 11.6145059,19.375 12.6341782,19.375 L49.566619,19.375 Z" id="路径备份" fill="#DCE9F9"></path>
                                    <path d="M12.5743823,40.6260251 L25.4604446,40.6260251 L25.4604447,40.6260251 C26.4774583,40.5894023 27.3269144,41.5386365 27.3577589,42.7461991 C27.3886028,43.9537607 26.5891536,44.9623711 25.5721392,44.9989947 C25.5349159,45.0003351 25.4976669,45.0003351 25.4604439,44.9989947 L12.5743816,44.9989947 L12.5743817,44.9989947 C11.557368,44.9623719 10.7579174,43.9537607 10.7887619,42.7461991 C10.8182914,41.5900952 11.600706,40.6610842 12.5743817,40.6260251 L12.5743823,40.6260251 Z" id="路径" fill="#DCE9F9"></path>
                                </g>
                            </g>
                        </g>
                    </g>
                </g>
            </g>
        </g>
    </g>
</svg>